<!-- icon666.com - MILLIONS vector ICONS FREE --><svg id="Layer_1" enable-background="new 0 0 491.5 491.5" viewBox="0 0 491.5 491.5" xmlns="http://www.w3.org/2000/svg"><g clip-rule="evenodd" fill-rule="evenodd"><g fill="#03a8dd"><path d="m59.5 435.9 44.7 19.8 65.8-31.6c1.3-.6 2.7-.6 4-.1l31.1 13.7-20.5-35.4z"></path><path d="m122.6 294.8-87.1 23.4v80.9l127.6-34.2z"></path><path d="m35.5 144v130.9l65.5-17.5z"></path><path d="m252.5 216.8-50.6-87.6-29.7-13.1-65.8 31.6c-1.3.6-2.7.6-4 .1l-22.1-9.8 62.5 108.3z"></path><path d="m343.8 192.3c-2-3.5-4.2-7.3-6.5-11.3-11-19-23.8-41.2-31.9-58.7l-47.1 20.8 36.1 62.5z"></path><path d="m399.8 143c-6.8 12.6-14.5 26-21.5 38-.5.8-1 1.6-1.4 2.5l79.1-21.2v-44.1z"></path><path d="m356.4 313.2 99.6-26.7v-81l-140.1 37.5z"></path><path d="m428.2 437.6 27.8-12.2v-95.7l-78 20.9z"></path><path d="m226.5 391.2 33.6 58.2 57.3-25.3c1.3-.6 2.7-.5 4 .1l65.8 31.6 2.5-1.1-53.6-92.8z"></path><path d="m164.4 283.6 40.5 70.1 109.7-29.3-40.5-70.2z"></path></g><path d="m369.5 343 86.5-23.2v-23.4l-100.7 27c-2.1.6-4.3-.4-5.4-2.2l-45.4-78.7c-1.6-2.7-.1-6.2 2.9-7l148.6-39.9v-23.4l-85.9 23c-3.4 5.9-6.2 10.9-8.1 14.8-1.8 3.5-6.8 3.5-8.6 0-1.3-2.5-2.9-5.6-4.8-9l-55.5 14.9c-2.1.6-4.3-.4-5.4-2.2l-38.4-66.7-1.6.7c-1.2.5-2.6.5-3.9 0l-27-11.9 47.1 81.6c1.6 2.7.1 6.2-2.9 7l-119.3 32c-2.1.6-4.3-.3-5.4-2.2l-70.9-122.8-29.9-13.2v6.6l76.9 133.2c1.6 2.7.1 6.2-2.9 7l-74 19.8v23.4l88.2-23.6c2.1-.6 4.3.4 5.4 2.2l45.4 78.7c1.6 2.7.1 6.2-2.9 7l-136.1 36.6v16.3l10 4.4 140.3-37.6c2.1-.6 4.3.4 5.4 2.2l28.9 50 25.7 11.4 5.5-2.4-36.2-62.7c-1.6-2.7-.1-6.2 2.9-7l119.3-32c2.1-.6 4.3.4 5.4 2.2l55.9 96.9 20.8-9.2-52.8-91.6c-1.6-2.7-.2-6.2 2.9-7zm-46.4-11-119.3 32c-2.1.6-4.3-.4-5.4-2.2l-45.4-78.8c-1.6-2.7-.1-6.2 2.9-7l119.3-32c2.1-.6 4.3.4 5.4 2.2l45.4 78.8c1.6 2.7.2 6.2-2.9 7z" fill="#4d81c2"></path><path d="m312.2 114.3c7.7 17.7 22 42.4 33.3 61.9 4.1 7.1 8.3 14.2 12.2 21.4 4-7.2 8.1-14.3 12.2-21.4 15.1-26.1 35.8-61.8 38.4-77 4.2-24.1-2.9-43.5-19.9-54.7-8.9-5.8-19.9-8.8-30.8-8.8s-21.9 2.9-30.8 8.8c-17 11.2-24.1 30.6-19.9 54.7 1.2 5.7 3.5 9.9 5.3 15.1zm45.6-59c17.9 0 32.5 14.6 32.5 32.5s-14.6 32.5-32.5 32.5-32.5-14.6-32.5-32.5c0-18 14.6-32.5 32.5-32.5z" fill="#03a8dd"></path><path d="m357.8 110.6c12.6 0 22.9-10.3 22.9-22.9s-10.2-22.9-22.9-22.9c-12.6 0-22.9 10.3-22.9 22.9s10.3 22.9 22.9 22.9z" fill="#4d81c2"></path></g></svg>